<svg width="472" height="321" viewBox="0 0 472 321" fill="none" xmlns="http://www.w3.org/2000/svg">
<path d="M9.68088 143.376L9.67161 143.371L9.66224 143.366C6.21848 141.427 3.15841 138.938 1.77139 136.536C1.08806 135.353 0.865144 134.288 1.07784 133.353C1.28747 132.432 1.96648 131.435 3.511 130.473L223.983 3.25923L223.997 3.25116L224.011 3.24264C225.565 2.27784 227.525 1.48001 229.472 1.15574C231.429 0.829906 233.264 0.997939 234.676 1.82022L234.677 1.82068L465.272 135.828C468.443 137.671 470.36 141.199 470.655 144.779C470.948 148.349 469.623 151.783 466.552 153.595C466.55 153.596 466.549 153.596 466.547 153.597L257.334 273.156L257.328 273.159C253.088 275.623 248.278 276.936 243.374 276.971C238.47 277.006 233.643 275.76 229.368 273.357L229.357 273.351L9.68088 143.376Z" stroke="#787887" stroke-opacity="0.1" stroke-width="2"/>
<path d="M9.68088 186.376L9.67161 186.371L9.66224 186.366C6.21848 184.427 3.15841 181.938 1.77139 179.536C1.08806 178.353 0.865144 177.288 1.07784 176.353C1.28747 175.432 1.96648 174.435 3.511 173.473L223.983 46.2592L223.997 46.2512L224.011 46.2426C225.565 45.2778 227.525 44.48 229.472 44.1557C231.429 43.8299 233.264 43.9979 234.676 44.8202L234.677 44.8207L465.272 178.828C468.443 180.671 470.36 184.199 470.655 187.779C470.948 191.349 469.623 194.783 466.552 196.595C466.55 196.596 466.549 196.596 466.547 196.597L257.334 316.156L257.328 316.159C253.088 318.623 248.278 319.936 243.374 319.971C238.47 320.006 233.643 318.76 229.368 316.357L229.357 316.351L9.68088 186.376Z" stroke="#787887" stroke-opacity="0.1" stroke-width="2"/>
</svg>
