<svg width="190" height="183" viewBox="0 0 190 183" fill="none" xmlns="http://www.w3.org/2000/svg">
<g filter="url(#filter0_d_89_5)">
<path d="M50 29.7551V83.6251L91.968 107.66L139.355 79.6351V25.7651" fill="black"/>
</g>
<path d="M50 29.7551V83.6251L91.968 107.66L139.355 79.6351V25.7651" fill="#FF9271"/>
<path d="M91.969 53.7911V107.661L139.356 79.6351V25.7651L91.969 53.7911Z" fill="#DF5C34"/>
<path d="M50 29.754L98.694 2L139.356 25.767L91.969 53.792L50 29.754Z" fill="#F47B56"/>
<path d="M93.083 14.3641C98.0202 14.0308 102.95 15.1165 107.29 17.4931C109.776 18.9551 111.134 20.4811 111.326 22.0721C111.518 23.6621 110.698 25.0471 108.764 26.2151C107.847 26.7819 106.836 27.1814 105.779 27.3951C104.91 27.6001 104.019 27.6901 103.127 27.6641L102.153 27.5871C102.244 27.8041 102.304 28.0331 102.333 28.2671C102.302 28.8207 102.125 29.3563 101.82 29.8191C101.313 30.6794 100.589 31.3915 99.72 31.8841C97.6953 33.0871 95.3747 33.7002 93.02 33.6541C90.5835 33.7196 88.1762 33.1116 86.063 31.8971C84.064 30.7171 83.04 29.3311 82.963 27.7411C82.9705 26.899 83.2148 26.0759 83.6678 25.3659C84.1208 24.656 84.7644 24.0877 85.525 23.7261C86.2548 23.271 87.0496 22.9294 87.882 22.7131C88.5458 22.5214 89.2292 22.4054 89.919 22.3671H90.624L89.342 21.5971L92.942 19.3531L101.282 24.2651C101.92 24.6085 102.633 24.7882 103.357 24.7882C104.081 24.7882 104.794 24.6085 105.432 24.2651C107.201 23.1621 106.569 21.7131 103.537 19.9171C100.315 18.1428 96.6516 17.3284 92.981 17.5701C89.0906 17.6178 85.2847 18.7121 81.963 20.7381C78.94 22.6281 77.441 24.8811 77.467 27.4981C77.467 30.0621 79.068 32.3461 82.181 34.1801C85.5787 36.0804 89.4375 36.9996 93.327 36.8351C97.1993 36.8983 101.013 35.8858 104.344 33.9101C105.497 33.2269 106.531 32.3606 107.406 31.3451C107.991 30.7238 108.428 29.9787 108.686 29.1651L108.866 28.3571L113.619 28.6261C113.627 28.7711 113.627 28.9161 113.619 29.0621C113.532 29.4547 113.416 29.8404 113.273 30.2161C113.067 30.819 112.791 31.3961 112.453 31.9361C111.965 32.6629 111.398 33.3336 110.763 33.9361C109.925 34.7445 109.001 35.4588 108.008 36.0661C105.148 37.783 101.98 38.9244 98.682 39.4261C95.0882 40.0538 91.4187 40.1185 87.805 39.6181C84.5201 39.2309 81.3453 38.1931 78.466 36.5651C76.1411 35.3342 74.2795 33.3806 73.162 30.9991C72.7053 29.9601 72.4695 28.8376 72.4695 27.7026C72.4695 26.5677 72.7053 25.4451 73.162 24.4061C74.269 21.9811 76.1115 19.9661 78.428 18.6471C82.842 15.9342 87.9028 14.4548 93.083 14.3631V14.3641ZM97.746 27.6261C97.576 26.7351 96.976 25.9861 96.145 25.6251C95.1359 25.0304 93.9863 24.7159 92.815 24.7141C91.7261 24.6728 90.6487 24.949 89.714 25.5091C89.3374 25.6929 89.0187 25.9769 88.7927 26.3298C88.5668 26.6828 88.4423 27.0911 88.433 27.5101C88.55 28.4001 89.123 29.1641 89.945 29.5241C90.9772 30.1139 92.1506 30.4112 93.339 30.3841C94.4817 30.4126 95.6093 30.1191 96.593 29.5371C96.9578 29.3701 97.266 29.1004 97.48 28.761C97.694 28.4216 97.8045 28.0273 97.798 27.6261" fill="#3E2928"/>
<defs>
<filter id="filter0_d_89_5" x="0" y="0.765137" width="189.355" height="181.895" filterUnits="userSpaceOnUse" color-interpolation-filters="sRGB">
<feFlood flood-opacity="0" result="BackgroundImageFix"/>
<feColorMatrix in="SourceAlpha" type="matrix" values="0 0 0 0 0 0 0 0 0 0 0 0 0 0 0 0 0 0 127 0" result="hardAlpha"/>
<feOffset dy="25"/>
<feGaussianBlur stdDeviation="25"/>
<feColorMatrix type="matrix" values="0 0 0 0 0.209139 0 0 0 0 0.0691446 0 0 0 0 0.478091 0 0 0 0.497159 0"/>
<feBlend mode="normal" in2="BackgroundImageFix" result="effect1_dropShadow_89_5"/>
<feBlend mode="normal" in="SourceGraphic" in2="effect1_dropShadow_89_5" result="shape"/>
</filter>
</defs>
</svg>
