<svg width="477" height="429" viewBox="0 0 477 429" fill="none" xmlns="http://www.w3.org/2000/svg">
<path d="M233.877 425.229L14.1717 295.237C7.17666 291.299 1.18166 284.847 7.99666 280.615L228.484 153.393C231.789 151.341 236.811 149.994 240.18 151.956L470.775 285.963C477.769 290.029 479.025 301.355 472.055 305.459L262.831 425.024C258.44 427.575 253.459 428.935 248.381 428.971C243.304 429.007 238.304 427.717 233.878 425.229H233.877Z" fill="#787887" fill-opacity="0.1"/>
<path d="M228.877 354.392L9.17166 224.4C2.17666 220.462 -3.81834 214.01 2.99666 209.778L223.484 82.5557C226.789 80.5037 231.811 79.1567 235.18 81.1187L465.775 215.126C472.769 219.192 474.025 230.518 467.055 234.622L257.831 354.187C253.44 356.737 248.459 358.098 243.381 358.134C238.304 358.17 233.304 356.88 228.878 354.392H228.877Z" fill="#5B36A0"/>
<path d="M228.877 348.392L9.17166 218.4C2.17666 214.462 -3.81834 208.01 2.99666 203.778L223.484 76.5557C226.789 74.5037 231.811 73.1567 235.18 75.1187L465.775 209.126C472.769 213.192 474.025 224.518 467.055 228.622L257.831 348.187C253.44 350.737 248.459 352.098 243.381 352.134C238.304 352.17 233.304 350.88 228.878 348.392H228.877Z" fill="#6862E6"/>
<path style="mix-blend-mode:multiply" opacity="0.25" d="M246.992 176.882L203.639 201.649C203.639 201.649 270.422 242.449 284.078 248.195L309.046 212.282" fill="url(#paint0_linear_88_17)"/>
<path style="mix-blend-mode:multiply" opacity="0.25" d="M232.016 295.702L188.651 270.987L145.287 295.754C145.287 295.754 167.872 309.554 189.458 322.227C203.166 312.517 216.886 302.706 232.016 295.702V295.702Z" fill="url(#paint1_linear_88_17)"/>
<path style="mix-blend-mode:multiply" opacity="0.46" d="M138.587 143.072L111.082 158.784C111.082 158.784 113.413 173.188 127.07 178.934L163.08 155.847" fill="url(#paint2_linear_88_17)"/>
<path d="M152.051 158.784C161.213 158.784 168.641 153.547 168.641 147.087C168.641 140.627 161.213 135.39 152.051 135.39C142.888 135.39 135.461 140.627 135.461 147.087C135.461 153.547 142.888 158.784 152.051 158.784Z" fill="#68E1FD"/>
<path d="M152.038 145.278C158.9 145.278 164.464 142.998 164.464 140.186C164.464 137.374 158.9 135.094 152.038 135.094C145.175 135.094 139.612 137.374 139.612 140.186C139.612 142.998 145.175 145.278 152.038 145.278Z" fill="#974C26"/>
<path d="M151.589 131.695C151.589 129.399 151.513 127.104 151.333 124.808C151.282 124.209 151.227 123.615 151.167 123.025L151.039 121.858C151.039 121.511 150.859 120.575 150.859 120.665C150.782 120.195 150.701 119.729 150.616 119.267C149.261 111.474 146.237 104.066 141.751 97.5518C140.063 101.574 139.221 105.9 139.278 110.262C139.278 111.546 139.381 112.828 139.483 114.034V114.791C139.586 115.406 139.701 116.073 139.829 116.637C140.317 118.976 140.972 121.278 141.789 123.525C142.523 125.593 143.418 127.6 144.467 129.528C145.597 131.698 146.824 133.816 148.143 135.877C149.094 137.381 150.09 138.856 151.128 140.302C151.436 137.442 151.577 134.568 151.589 131.695V131.695ZM145.069 105.876C145.134 105.58 145.134 105.274 145.069 104.979C145.385 105.303 145.697 105.637 146.004 105.979C145.696 105.891 145.375 105.856 145.056 105.876H145.069Z" fill="#999A1C"/>
<path d="M155.855 133.465C157.125 131.549 158.292 129.566 159.353 127.527C159.635 126.997 159.908 126.467 160.173 125.937L160.698 124.872L161.198 123.769L161.748 122.486C164.819 115.188 166.274 107.312 166.014 99.3987C162.412 101.869 159.359 105.057 157.047 108.762C156.383 109.83 155.763 110.926 155.189 112.046L154.933 112.52L154.869 112.726C154.626 113.303 154.382 113.88 154.152 114.47C153.301 116.705 152.612 118.998 152.089 121.332C151.59 123.47 151.261 125.645 151.103 127.835C150.876 130.269 150.765 132.713 150.77 135.158C150.77 137.069 150.77 138.814 150.885 140.494C152.589 138.224 154.305 135.889 155.855 133.465V133.465ZM164.311 108.211C164.511 107.985 164.66 107.718 164.746 107.428C164.84 107.873 164.921 108.301 164.99 108.711C164.79 108.511 164.56 108.343 164.31 108.211H164.311Z" fill="#999A1C"/>
<path d="M155.766 139.186C157.07 138.537 158.351 137.844 159.609 137.108L160.569 136.518L161.198 136.12L161.813 135.684L162.53 135.158C166.535 132.213 169.857 128.437 172.266 124.089C169.531 124.265 166.862 125.003 164.426 126.257C163.721 126.617 163.042 127.014 162.363 127.424L162.069 127.604L161.966 127.694L161.018 128.399C159.837 129.331 158.724 130.347 157.688 131.439C156.73 132.433 155.851 133.5 155.061 134.632C154.171 135.891 153.317 137.174 152.499 138.48C151.918 139.438 151.367 140.413 150.846 141.405C152.499 140.712 154.152 139.994 155.766 139.185V139.186ZM168.474 128.284C168.655 128.227 168.821 128.13 168.961 128.001C168.867 128.275 168.765 128.544 168.653 128.809C168.619 128.63 168.559 128.457 168.474 128.296V128.284ZM151.589 131.695C151.589 129.399 151.513 127.104 151.333 124.808C151.282 124.209 151.227 123.615 151.167 123.025L151.039 121.858C151.039 121.511 150.859 120.575 150.859 120.665C150.782 120.195 150.701 119.729 150.616 119.267C149.261 111.474 146.237 104.066 141.751 97.5518C140.063 101.574 139.221 105.9 139.278 110.262C139.278 111.546 139.381 112.828 139.483 114.034V114.791C139.586 115.406 139.701 116.073 139.829 116.637C140.317 118.976 140.972 121.278 141.789 123.525C142.523 125.593 143.418 127.6 144.467 129.528C145.597 131.698 146.824 133.816 148.143 135.877C149.094 137.381 150.09 138.856 151.128 140.302C151.436 137.442 151.577 134.568 151.589 131.695V131.695ZM145.069 105.876C145.134 105.58 145.134 105.274 145.069 104.979C145.385 105.303 145.697 105.637 146.004 105.979C145.696 105.891 145.375 105.856 145.056 105.876H145.069Z" fill="#999A1C"/>
<path d="M155.855 133.465C157.125 131.549 158.292 129.566 159.353 127.527C159.635 126.997 159.908 126.467 160.173 125.937L160.698 124.872L161.198 123.769L161.748 122.486C164.819 115.188 166.274 107.312 166.014 99.3987C162.412 101.869 159.359 105.057 157.047 108.762C156.383 109.83 155.763 110.926 155.189 112.046L154.933 112.52L154.869 112.726C154.626 113.303 154.382 113.88 154.152 114.47C153.301 116.705 152.612 118.998 152.089 121.332C151.59 123.47 151.261 125.645 151.103 127.835C150.876 130.269 150.765 132.713 150.77 135.158C150.77 137.069 150.77 138.814 150.885 140.494C152.589 138.224 154.305 135.889 155.855 133.465V133.465ZM164.311 108.211C164.511 107.985 164.66 107.718 164.746 107.428C164.84 107.873 164.921 108.301 164.99 108.711C164.79 108.511 164.56 108.343 164.31 108.211H164.311Z" fill="#999A1C"/>
<path d="M155.766 139.186C157.07 138.536 158.351 137.843 159.609 137.108L160.569 136.518L161.198 136.12L161.813 135.684L162.53 135.158C166.535 132.213 169.857 128.437 172.266 124.089C169.531 124.265 166.862 125.003 164.426 126.257C163.721 126.617 163.042 127.014 162.363 127.424L162.069 127.604L161.966 127.694L161.018 128.399C159.837 129.331 158.724 130.347 157.688 131.439C156.73 132.433 155.851 133.5 155.061 134.632C154.171 135.89 153.317 137.174 152.499 138.48C151.918 139.438 151.367 140.413 150.846 141.405C152.499 140.712 154.152 139.994 155.766 139.185V139.186ZM168.474 128.284C168.655 128.227 168.821 128.13 168.961 128.001C168.867 128.275 168.765 128.544 168.653 128.809C168.619 128.63 168.559 128.457 168.474 128.296V128.284Z" fill="#999A1C"/>
<path d="M264.209 167.211L240.215 178.754C239.31 179.189 238.542 179.863 237.991 180.702C237.44 181.542 237.129 182.515 237.089 183.518C237.05 184.521 237.284 185.516 237.767 186.396C238.25 187.276 238.963 188.008 239.831 188.514L296.698 221.734C297.927 222.453 299.386 222.669 300.771 222.337C302.156 222.005 303.358 221.15 304.128 219.952L317.951 198.429" fill="#A1482D"/>
<path d="M394.713 111.533L203.383 1.15067C202.071 0.395102 200.583 -0.00174957 199.068 5.79808e-06C197.554 0.00176116 196.067 0.402061 194.757 1.16067C193.445 1.9201 192.357 3.01092 191.6 4.32375C190.843 5.63659 190.445 7.12531 190.445 8.64067V123.474C190.444 124.734 190.776 125.972 191.405 127.064C192.035 128.156 192.941 129.063 194.032 129.694L398.005 247.579C398.708 247.987 399.507 248.202 400.32 248.203C401.134 248.203 401.933 247.989 402.637 247.582C403.341 247.174 403.926 246.588 404.332 245.883C404.738 245.177 404.95 244.378 404.949 243.564V129.207C404.947 125.621 403.999 122.099 402.202 118.996C400.405 115.893 397.822 113.319 394.713 111.533V111.533Z" fill="#F47B56"/>
<path d="M203.396 9.83472L388.948 116.715C390.929 117.858 392.575 119.503 393.72 121.484C394.864 123.465 395.467 125.713 395.468 128.001V214.077C395.466 214.9 395.249 215.709 394.838 216.422C394.427 217.135 393.836 217.728 393.124 218.142C392.412 218.554 391.604 218.773 390.781 218.775C389.959 218.778 389.15 218.564 388.436 218.156L199.207 109.493C198.498 109.086 197.91 108.499 197.5 107.792C197.091 107.085 196.876 106.283 196.876 105.466V13.6177C196.876 12.0627 197.703 10.6257 199.047 9.84572C199.707 9.46235 200.457 9.25951 201.22 9.25758C201.984 9.25565 202.734 9.4547 203.397 9.83472H203.396Z" fill="white"/>
<path d="M281.47 172.187C283.659 171.766 285.042 169.394 284.56 166.89C284.078 164.386 281.913 162.698 279.724 163.12C277.535 163.541 276.151 165.913 276.634 168.417C277.116 170.921 279.281 172.609 281.47 172.187Z" fill="#AB643C"/>
<path opacity="0.32" d="M253.269 126.616L339.499 178.485L382.094 153.692L305.985 109.339" fill="url(#paint3_linear_88_17)"/>
<path d="M359.829 116.291L266.605 59.3807C266.106 59.0919 265.538 58.9422 264.962 58.9471C264.385 58.9521 263.821 59.1114 263.327 59.4087C262.832 59.706 262.426 60.1303 262.151 60.6374C261.876 61.1445 261.742 61.7161 261.762 62.2927V94.7187C261.758 95.305 261.906 95.8824 262.191 96.3947C262.476 96.907 262.888 97.337 263.389 97.6427L356.601 153.347C357.598 153.914 358.821 153.907 359.811 153.327C360.297 153.042 360.701 152.634 360.981 152.145C361.26 151.655 361.407 151.101 361.405 150.537L361.892 120.307C361.928 119.516 361.756 118.729 361.394 118.025C361.032 117.32 360.493 116.723 359.829 116.292V116.291Z" fill="#E2AC00"/>
<path d="M337.526 132.978C340.869 137.659 346.749 138.968 350.644 135.915C354.538 132.862 354.987 126.591 351.644 121.922C348.299 117.253 342.419 115.932 338.524 118.985C334.63 122.037 334.182 128.296 337.526 132.978V132.978Z" fill="white"/>
<path d="M328.379 110.507L290.356 87.5867C290.029 87.4336 289.657 87.4081 289.313 87.515C288.968 87.6219 288.676 87.8536 288.494 88.1647C288.311 88.4759 288.251 88.8442 288.325 89.1974C288.399 89.5507 288.603 89.8635 288.896 90.0747L326.918 112.995C327.244 113.148 327.616 113.173 327.961 113.066C328.305 112.959 328.597 112.728 328.78 112.417C328.962 112.105 329.023 111.737 328.949 111.384C328.874 111.031 328.671 110.718 328.379 110.507V110.507ZM326.816 119.819L274.406 88.2277C274.085 88.1174 273.735 88.1233 273.418 88.2442C273.101 88.3652 272.836 88.5935 272.67 88.8895C272.504 89.1855 272.447 89.5304 272.509 89.8641C272.571 90.1978 272.748 90.4991 273.01 90.7157L325.355 122.319C325.681 122.472 326.053 122.497 326.398 122.39C326.742 122.283 327.034 122.052 327.217 121.741C327.399 121.43 327.46 121.061 327.386 120.708C327.311 120.355 327.108 120.042 326.816 119.831V119.818V119.819Z" fill="#F2F2F2"/>
<path d="M341.228 122.576L248.055 65.6788C247.556 65.39 246.988 65.2403 246.412 65.2452C245.835 65.2502 245.271 65.4095 244.777 65.7068C244.282 66.0041 243.876 66.4284 243.601 66.9355C243.326 67.4426 243.191 68.0142 243.212 68.5908V101.002C243.204 101.589 243.349 102.169 243.632 102.684C243.915 103.199 244.327 103.631 244.827 103.94L338.038 159.643C339.046 160.223 340.288 160.213 341.286 159.618C341.776 159.325 342.18 158.907 342.456 158.406C342.732 157.906 342.869 157.341 342.855 156.77L343.342 126.54C343.363 125.752 343.18 124.973 342.809 124.278C342.438 123.583 341.894 122.997 341.228 122.576V122.576Z" fill="#F47B56"/>
<path d="M318.924 139.263C322.268 143.944 328.148 145.253 332.043 142.2C335.937 139.147 336.385 132.875 333.042 128.207C329.698 123.537 323.818 122.217 319.924 125.269C316.029 128.322 315.581 134.581 318.924 139.263Z" fill="white"/>
<path d="M309.777 116.791L271.729 93.8706C271.402 93.7176 271.03 93.692 270.686 93.7989C270.341 93.9059 270.049 94.1375 269.867 94.4486C269.684 94.7599 269.624 95.1281 269.698 95.4814C269.772 95.8346 269.976 96.1474 270.269 96.3586L308.291 119.279C308.617 119.432 308.989 119.457 309.334 119.35C309.678 119.243 309.97 119.012 310.153 118.701C310.335 118.389 310.396 118.021 310.322 117.668C310.247 117.315 310.044 117.002 309.752 116.791H309.777V116.791ZM308.202 126.167L255.805 94.5246C255.478 94.3717 255.106 94.3463 254.761 94.4534C254.417 94.5605 254.125 94.7924 253.943 95.1036C253.76 95.4149 253.7 95.7831 253.774 96.1364C253.848 96.4896 254.052 96.8024 254.345 97.0136L306.754 128.604C307.08 128.757 307.452 128.782 307.797 128.675C308.141 128.568 308.433 128.337 308.616 128.026C308.798 127.714 308.858 127.346 308.784 126.993C308.71 126.64 308.506 126.327 308.214 126.116L308.202 126.167V126.167Z" fill="#F2F2F2"/>
<path d="M317.849 126.399L224.649 69.5018C224.15 69.2129 223.583 69.063 223.006 69.0677C222.429 69.0725 221.865 69.2317 221.371 69.5288C220.876 69.8262 220.471 70.2505 220.196 70.7577C219.921 71.2648 219.786 71.8363 219.807 72.4128V104.825C219.803 105.411 219.951 105.988 220.236 106.501C220.521 107.013 220.933 107.443 221.434 107.749L314.645 163.453C315.653 164.033 316.895 164.023 317.894 163.427C318.384 163.134 318.788 162.716 319.063 162.216C319.339 161.715 319.476 161.151 319.462 160.58L319.949 130.349C319.969 129.565 319.787 128.79 319.419 128.097C319.051 127.405 318.51 126.82 317.849 126.399V126.399Z" fill="#68E1FD"/>
<path d="M317.849 126.399L224.649 69.5018C224.15 69.2129 223.583 69.063 223.006 69.0677C222.429 69.0725 221.865 69.2317 221.371 69.5288C220.876 69.8262 220.471 70.2505 220.196 70.7577C219.921 71.2648 219.786 71.8363 219.807 72.4128V104.825C219.803 105.411 219.951 105.988 220.236 106.501C220.521 107.013 220.933 107.443 221.434 107.749L314.645 163.453C315.653 164.033 316.895 164.023 317.894 163.427C318.384 163.134 318.788 162.716 319.063 162.216C319.339 161.715 319.476 161.151 319.462 160.58L319.949 130.349C319.969 129.565 319.787 128.79 319.419 128.097C319.051 127.405 318.51 126.82 317.849 126.399V126.399Z" fill="#68E1FD"/>
<path d="M295.532 143.085C298.875 147.766 304.756 149.075 308.65 146.022C312.545 142.969 312.993 136.697 309.65 132.029C306.306 127.36 300.425 126.039 296.531 129.092C292.637 132.144 292.227 138.403 295.531 143.085H295.532Z" fill="white"/>
<path d="M286.385 120.614L248.35 97.6936C248.023 97.5406 247.651 97.515 247.307 97.6219C246.962 97.7289 246.67 97.9605 246.488 98.2716C246.305 98.5828 246.245 98.9509 246.319 99.3042C246.393 99.6574 246.596 99.9702 246.889 100.182L284.912 123.102C285.238 123.255 285.61 123.28 285.955 123.173C286.299 123.066 286.591 122.835 286.774 122.524C286.956 122.212 287.017 121.844 286.942 121.491C286.868 121.138 286.664 120.825 286.372 120.614H286.385V120.614ZM284.809 129.939L232.4 98.3466C232.073 98.1937 231.701 98.1683 231.357 98.2754C231.012 98.3825 230.72 98.6144 230.538 98.9256C230.355 99.2369 230.295 99.6051 230.369 99.9584C230.444 100.312 230.647 100.624 230.94 100.836L283.349 132.426C283.675 132.579 284.047 132.604 284.392 132.497C284.736 132.39 285.028 132.159 285.211 131.848C285.393 131.536 285.454 131.168 285.379 130.815C285.305 130.462 285.101 130.149 284.809 129.938V129.939Z" fill="#F2F2F2"/>
<path d="M195.531 123.217C189.507 128.409 184.952 135.092 182.323 142.597C177.685 155.424 189.279 176.381 189.279 176.381L207.317 162.081" fill="#FF8F6F"/>
<path d="M193.583 292.791L188.69 290.085L189.97 283.082C189.97 283.082 197.26 283.774 197.9 286.365" fill="#003B94"/>
<path d="M195.377 292.689C196.479 292.009 197.632 291.406 198.772 290.803C201.602 289.251 205.69 287.648 207.432 284.736C207.789 284.147 207.958 283.463 207.917 282.776C207.876 282.089 207.626 281.43 207.202 280.888C204.639 277.784 199.028 282.889 196.158 279.452C195.595 278.772 195.326 267.985 195.326 267.985L184.411 270.935C184.411 270.935 182.566 292.611 182.771 293.945C182.976 295.279 186.73 296.511 186.73 296.511C187.848 296.273 188.914 295.838 189.881 295.228C191.021 294.394 189.983 284.223 191.444 285.647C192.904 287.071 193.544 292.637 193.544 292.637C194.151 292.729 194.766 292.747 195.377 292.688V292.689Z" fill="#F47B56"/>
<path d="M214.427 303.269L209.533 300.602L210.813 293.599C210.813 293.599 218.103 294.292 218.743 296.882" fill="#003B94"/>
<path d="M216.271 303.167C217.373 302.487 218.526 301.885 219.666 301.282C222.497 299.73 226.584 298.127 228.326 295.215C228.683 294.626 228.852 293.942 228.811 293.255C228.77 292.568 228.52 291.909 228.096 291.367C225.533 288.263 219.922 293.368 217.053 289.931C216.489 289.251 216.22 278.464 216.22 278.464L205.305 281.414C205.305 281.414 203.448 303.167 203.653 304.45C203.858 305.732 207.611 307.015 207.611 307.015C208.729 306.777 209.796 306.343 210.763 305.732C211.903 304.899 210.865 294.728 212.326 296.152C213.786 297.575 214.426 303.142 214.426 303.142C215.037 303.226 215.657 303.235 216.271 303.167V303.167Z" fill="#F47B56"/>
<path d="M178.864 232.803L175.648 275.861C175.648 275.861 180.773 282.941 197.952 279.003L198.118 249.977L178.864 232.803ZM198.708 241.333C198.336 245.039 198.708 285.929 198.708 285.929C198.708 285.929 203.46 294.83 224.15 285.929L223.855 251.183" fill="#3E2928"/>
<path d="M177.262 247.027C178.672 248.002 179.158 242.987 180.632 243.847C185.991 246.963 191.679 249.475 197.593 251.337H197.721C197.862 251.268 198.015 251.229 198.171 251.221C198.328 251.213 198.484 251.236 198.631 251.29C198.779 251.344 198.913 251.427 199.028 251.534C199.142 251.641 199.233 251.77 199.297 251.914C202.949 253.005 206.668 253.861 210.43 254.479C215.26 255.249 219.256 251.671 224.214 251.427C224.214 232.419 224.304 178.318 216.22 166.775L192.302 158.72C192.187 160.695 180.696 174.034 180.977 190.298C181.297 208.626 178.915 225.916 178.505 231.649C178.441 232.624 177.314 245.989 177.262 247.027V247.027Z" fill="#3E2928"/>
<path d="M218.423 144.919L216.22 166.723C216.22 166.723 198.375 167.442 190.688 162.132V143.636" fill="#FF8F6F"/>
<path d="M241.111 130.567L239.292 133.055C240.262 131.031 241.118 128.955 241.854 126.835C242.367 125.385 240.048 124.808 239.536 126.257L239.266 127.001C239.489 126.231 239.698 125.458 239.894 124.679C239.934 124.526 239.944 124.366 239.922 124.209C239.901 124.052 239.848 123.901 239.768 123.764C239.687 123.628 239.58 123.509 239.453 123.414C239.326 123.319 239.181 123.251 239.027 123.212C238.873 123.174 238.713 123.167 238.557 123.191C238.4 123.215 238.25 123.27 238.115 123.353C237.98 123.436 237.862 123.544 237.769 123.673C237.677 123.802 237.61 123.947 237.575 124.102C237.072 126.115 236.469 128.101 235.769 130.054C236.16 128.32 236.443 126.563 236.615 124.794C236.769 123.269 234.373 123.333 234.232 124.794C234.033 126.808 233.673 128.802 233.156 130.759C233.156 130.075 233.092 129.391 232.964 128.707C232.946 128.536 232.893 128.371 232.806 128.223C232.72 128.074 232.603 127.946 232.464 127.847C232.399 127.578 232.322 127.313 232.234 127.052C232.143 126.783 231.961 126.555 231.719 126.407C231.477 126.26 231.19 126.202 230.91 126.245C230.629 126.288 230.373 126.429 230.186 126.642C230 126.856 229.894 127.128 229.889 127.412L229.735 136.39C229.302 137.32 228.736 138.185 228.057 138.955C229.209 139.753 230.321 140.609 231.388 141.52C232.339 142.325 233.246 143.181 234.104 144.085C234.869 143.131 235.608 142.156 236.32 141.161C236.408 141.086 236.486 141 236.55 140.904C238.683 137.742 240.888 134.629 243.161 131.567C244.109 130.515 242.021 129.348 241.111 130.567V130.567Z" fill="#FFB5A9"/>
<path d="M207.099 125.039C207.099 125.039 215.529 127.309 218.949 132.734C221.091 136.489 222.979 140.385 224.599 144.394L230.824 134.709C230.824 134.709 238.383 137.031 241.38 140.751C241.38 140.751 232.413 160.374 224.598 162.055C216.784 163.735 208.482 150.537 208.482 150.537C208.482 150.537 206.766 156.052 207.099 150.165" fill="#FF8F6F"/>
<path d="M212.454 146.009C210.003 144.012 208.154 141.375 207.112 138.391C206.099 134.941 207.368 131.913 208.546 128.707C209.822 125.528 210.566 122.161 210.75 118.741C210.852 115.381 210.468 112.021 210.237 108.672C210.204 108.528 210.204 108.379 210.237 108.236C209.11 104.453 206.804 101.246 202.257 100.861C190.483 99.8608 189.817 112.918 189.907 118.228C189.997 123.538 190.56 127.129 186.653 129.348C182.745 131.567 179.927 137.39 183.655 142.098C187.383 146.804 184.039 145.086 181.554 149.267C179.069 153.448 179.709 158.669 184.808 160.554C189.907 162.439 213.607 158.899 215.784 156.706C216.557 155.822 216.956 154.673 216.899 153.5C216.368 150.549 214.789 147.889 212.454 146.01V146.009Z" fill="#007F68"/>
<path d="M224.035 38.3206C226.03 41.1966 227.184 44.5726 227.365 48.0686C227.588 49.6691 227.2 51.295 226.277 52.6216C225.884 53.0543 225.358 53.3436 224.783 53.4436C224.207 53.5435 223.614 53.4485 223.099 53.1736C222.451 52.9152 221.866 52.5218 221.383 52.0196C220.948 51.6111 220.576 51.1399 220.281 50.6216L219.974 50.0186C219.89 50.1763 219.786 50.3227 219.666 50.4546C219.36 50.6924 218.999 50.8471 218.616 50.9036C217.975 51.0223 217.313 50.9417 216.72 50.6726C215.303 50.0588 214.125 49.0009 213.363 47.6586C212.444 46.1993 211.931 44.5213 211.877 42.7976C211.783 42.1081 211.841 41.4064 212.047 40.7417C212.253 40.077 212.602 39.4654 213.069 38.9496C213.474 38.5577 213.991 38.3004 214.548 38.2131C215.105 38.1258 215.676 38.2125 216.182 38.4616C216.695 38.6666 217.168 38.9616 217.578 39.3346C217.928 39.6316 218.237 39.9716 218.5 40.3476L218.73 40.7576V39.6166L221.293 40.6166L221.549 47.8256C221.567 48.3416 221.727 48.8426 222.011 49.2746C222.251 49.6916 222.62 50.0196 223.061 50.2106C224.299 50.6986 224.871 49.6296 224.778 47.0046C224.649 44.4049 223.792 41.8938 222.305 39.7576C220.969 37.5856 218.984 35.8893 216.63 34.9096C215.776 34.4749 214.811 34.3073 213.86 34.4285C212.909 34.5498 212.017 34.9544 211.3 35.5896C210.534 36.3598 209.952 37.2921 209.595 38.3176C209.238 39.3431 209.116 40.4356 209.238 41.5146C209.384 44.2637 210.269 46.9225 211.8 49.2106C213.018 51.4691 214.938 53.2698 217.27 54.3406C218.082 54.6806 218.954 54.8506 219.833 54.8406C220.405 54.8795 220.977 54.774 221.498 54.5336L222.011 54.2506L223.561 57.1366L223.304 57.3166C223.061 57.4533 222.808 57.5732 222.549 57.6756C222.139 57.8526 221.709 57.9736 221.267 58.0356C220.702 58.1115 220.129 58.1115 219.564 58.0356C218.821 57.9468 218.093 57.7612 217.399 57.4836C215.425 56.6337 213.672 55.3438 212.274 53.7126C210.616 51.8771 209.274 49.7793 208.303 47.5046C207.33 45.3314 206.774 42.995 206.663 40.6166C206.525 38.6166 206.933 36.6176 207.842 34.8326C208.596 33.3349 209.899 32.1861 211.48 31.6256C213.135 31.0798 214.935 31.1715 216.527 31.8826C219.636 33.1985 222.26 35.4483 224.035 38.3206V38.3206ZM218.385 47.4406C218.805 46.9026 218.995 46.2196 218.91 45.5416C218.889 44.706 218.656 43.8895 218.231 43.1696C217.884 42.5412 217.339 42.0451 216.681 41.7586C216.428 41.6283 216.142 41.5781 215.861 41.6147C215.579 41.6513 215.315 41.7731 215.105 41.9636C214.884 42.2155 214.719 42.5119 214.622 42.8327C214.525 43.1535 214.497 43.4913 214.542 43.8236C214.571 44.6696 214.822 45.4926 215.272 46.2086C215.642 46.8606 216.212 47.3736 216.899 47.6716C217.139 47.7948 217.412 47.8388 217.679 47.7973C217.946 47.7558 218.193 47.631 218.385 47.4406ZM375.292 177.202C377.291 180.076 378.444 183.453 378.622 186.95C378.845 188.55 378.457 190.176 377.534 191.503C377.14 191.933 376.614 192.221 376.039 192.321C375.465 192.421 374.873 192.327 374.357 192.055C373.711 191.793 373.126 191.4 372.64 190.901C372.207 190.49 371.836 190.018 371.538 189.502L371.231 188.9C371.144 189.056 371.041 189.202 370.923 189.336C370.619 189.576 370.257 189.731 369.873 189.785C369.238 189.912 368.579 189.836 367.99 189.567C366.571 188.949 365.393 187.887 364.633 186.54C363.705 185.079 363.187 183.395 363.134 181.666C363.036 180.976 363.093 180.273 363.299 179.608C363.505 178.943 363.856 178.331 364.326 177.818C364.729 177.427 365.244 177.17 365.799 177.083C366.354 176.996 366.922 177.082 367.426 177.331C367.94 177.535 368.413 177.83 368.822 178.203C369.172 178.505 369.482 178.85 369.745 179.229L369.988 179.639V178.498L372.55 179.485L372.807 186.694C372.829 187.209 372.988 187.709 373.267 188.143C373.509 188.56 373.877 188.888 374.318 189.079C375.599 189.567 376.125 188.502 376.048 185.873C375.918 183.269 375.061 180.754 373.575 178.613C372.239 176.449 370.259 174.758 367.913 173.778C367.059 173.343 366.095 173.174 365.145 173.293C364.195 173.412 363.303 173.813 362.583 174.445C361.821 175.224 361.245 176.165 360.897 177.197C360.549 178.23 360.438 179.327 360.573 180.409C360.716 183.158 361.601 185.817 363.134 188.104C364.399 190.308 366.34 192.048 368.669 193.068C369.481 193.406 370.351 193.58 371.231 193.581C371.802 193.614 372.374 193.508 372.896 193.273L373.409 192.991L374.959 195.877L374.703 196.057C374.459 196.193 374.207 196.313 373.947 196.416C373.535 196.586 373.105 196.706 372.666 196.775C372.096 196.85 371.519 196.85 370.949 196.775C370.21 196.681 369.486 196.492 368.797 196.211C366.824 195.364 365.072 194.078 363.672 192.452C362.014 190.612 360.672 188.51 359.702 186.232C358.728 184.059 358.172 181.722 358.062 179.344C357.922 177.348 358.33 175.353 359.24 173.572C359.996 172.073 361.298 170.921 362.878 170.353C364.538 169.812 366.34 169.904 367.938 170.61C371.011 171.994 373.58 174.297 375.292 177.202V177.202ZM369.642 186.322C369.852 186.056 370.008 185.752 370.101 185.426C370.193 185.1 370.22 184.759 370.18 184.423C370.157 183.586 369.919 182.769 369.489 182.051C369.148 181.422 368.607 180.925 367.951 180.64C367.7 180.508 367.415 180.456 367.133 180.49C366.852 180.524 366.588 180.643 366.376 180.832C366.151 181.081 365.983 181.377 365.883 181.698C365.783 182.019 365.755 182.358 365.799 182.692C365.829 183.534 366.08 184.352 366.529 185.065C366.898 185.72 367.469 186.237 368.156 186.54C368.395 186.664 368.667 186.711 368.934 186.671C369.201 186.632 369.449 186.51 369.642 186.322" fill="#F47B56"/>
<path style="mix-blend-mode:multiply" opacity="0.25" d="M119.998 231.893L76.6327 207.189L33.2817 231.943C33.2817 231.943 57.4037 247.026 78.9907 259.699C92.6977 250.002 104.881 238.908 119.998 231.892V231.893Z" fill="url(#paint4_linear_88_17)"/>
<defs>
<linearGradient id="paint0_linear_88_17" x1="268.128" y1="203.139" x2="254.186" y2="222.056" gradientUnits="userSpaceOnUse">
<stop stop-color="#78B46A"/>
<stop offset="0.03" stop-color="#7F3500"/>
<stop offset="1" stop-color="white"/>
</linearGradient>
<linearGradient id="paint1_linear_88_17" x1="216.566" y1="285.6" x2="187.325" y2="317.702" gradientUnits="userSpaceOnUse">
<stop stop-color="#78B46A"/>
<stop offset="0.03" stop-color="#7F3500"/>
<stop offset="1" stop-color="white"/>
</linearGradient>
<linearGradient id="paint2_linear_88_17" x1="153.023" y1="150.913" x2="131.099" y2="174.985" gradientUnits="userSpaceOnUse">
<stop stop-color="#78B46A"/>
<stop offset="0.03" stop-color="#7F3500"/>
<stop offset="1" stop-color="white"/>
</linearGradient>
<linearGradient id="paint3_linear_88_17" x1="357.638" y1="151.233" x2="344.499" y2="141.64" gradientUnits="userSpaceOnUse">
<stop stop-color="white" stop-opacity="0"/>
<stop offset="0.99" stop-color="#DC841E"/>
</linearGradient>
<linearGradient id="paint4_linear_88_17" x1="104.547" y1="221.648" x2="74.8789" y2="254.221" gradientUnits="userSpaceOnUse">
<stop stop-color="#78B46A"/>
<stop offset="0.03" stop-color="#7F3500"/>
<stop offset="1" stop-color="white"/>
</linearGradient>
</defs>
</svg>
